name Walk10.mot
datacolumns 19
datarows 30
range 1.90300000 1.93200000
endheader

                time	   L_ground_force_vx	   L_ground_force_vy	   L_ground_force_vz	   L_ground_force_px	   L_ground_force_py	   L_ground_force_pz	   R_ground_force_vx	   R_ground_force_vy	   R_ground_force_vz	   R_ground_force_px	   R_ground_force_py	   R_ground_force_pz	   L_ground_torque_x	   L_ground_torque_y	   L_ground_torque_z	   R_ground_torque_x	   R_ground_torque_y	   R_ground_torque_z	
          1.90300000	          0.05692010	          0.19642067	         -0.00359477	         -0.00007651	          0.00000000	         -0.00004432	        -35.65132468	        512.69115661	        -29.62225416	          0.45407725	          0.00000000	          0.09433033	          0.00000000	          0.00023546	          0.00000000	          0.00000000	         -0.74591928	          0.00000000	
          1.90400000	          0.05397774	          0.18784761	         -0.00358368	         -0.00007765	          0.00000000	         -0.00004593	        -35.55990185	        512.20930388	        -29.54259943	          0.45478389	          0.00000000	          0.09421100	          0.00000000	          0.00023948	          0.00000000	          0.00000000	         -0.73875961	          0.00000000	
          1.90500000	          0.05108159	          0.17929364	         -0.00355999	         -0.00007840	          0.00000000	         -0.00004722	        -35.46963944	        511.76251982	        -29.46373906	          0.45549236	          0.00000000	          0.09409099	          0.00000000	          0.00024226	          0.00000000	          0.00000000	         -0.73132682	          0.00000000	
          1.90600000	          0.04823865	          0.17078945	         -0.00352487	         -0.00007878	          0.00000000	         -0.00004823	        -35.38013394	        511.35041285	        -29.38562111	          0.45620245	          0.00000000	          0.09397033	          0.00000000	          0.00024389	          0.00000000	          0.00000000	         -0.72361692	          0.00000000	
          1.90700000	          0.04545515	          0.16236296	         -0.00347941	         -0.00007884	          0.00000000	         -0.00004897	        -35.29098662	        510.97255933	        -29.30821397	          0.45691400	          0.00000000	          0.09384908	          0.00000000	          0.00024446	          0.00000000	          0.00000000	         -0.71562668	          0.00000000	
          1.90800000	          0.04273655	          0.15403938	         -0.00342467	         -0.00007859	          0.00000000	         -0.00004946	        -35.20180424	        510.62850479	        -29.23150757	          0.45762681	          0.00000000	          0.09372729	          0.00000000	          0.00024406	          0.00000000	          0.00000000	         -0.70735334	          0.00000000	
          1.90900000	          0.04008760	          0.14584143	         -0.00336164	         -0.00007807	          0.00000000	         -0.00004972	        -35.11219997	        510.31776563	        -29.15551444	          0.45834072	          0.00000000	          0.09360500	          0.00000000	          0.00024276	          0.00000000	          0.00000000	         -0.69879445	          0.00000000	
          1.91000000	          0.03751240	          0.13778941	         -0.00329127	         -0.00007730	          0.00000000	         -0.00004978	        -35.02179451	        510.03983116	        -29.08027040	          0.45905555	          0.00000000	          0.09348227	          0.00000000	          0.00024066	          0.00000000	          0.00000000	         -0.68994780	          0.00000000	
          1.91100000	          0.03501440	          0.12990132	         -0.00321445	         -0.00007630	          0.00000000	         -0.00004963	        -34.93021726	        509.79416582	        -29.00583468	          0.45977110	          0.00000000	          0.09335915	          0.00000000	          0.00023783	          0.00000000	          0.00000000	         -0.68081134	          0.00000000	
          1.91200000	          0.03259648	          0.12219305	         -0.00313201	         -0.00007510	          0.00000000	         -0.00004932	        -34.83710753	        509.58021152	        -28.93228935	          0.46048722	          0.00000000	          0.09323572	          0.00000000	          0.00023435	          0.00000000	          0.00000000	         -0.67138312	          0.00000000	
          1.91300000	          0.03026096	          0.11467843	         -0.00304474	         -0.00007371	          0.00000000	         -0.00004884	        -34.74211567	        509.39739053	        -28.85973828	          0.46120372	          0.00000000	          0.09311201	          0.00000000	          0.00023027	          0.00000000	          0.00000000	         -0.66166133	          0.00000000	
          1.91400000	          0.02800967	          0.10736939	         -0.00295339	         -0.00007217	          0.00000000	         -0.00004822	        -34.64490409	        509.24510911	        -28.78830573	          0.46192043	          0.00000000	          0.09298808	          0.00000000	          0.00022567	          0.00000000	          0.00000000	         -0.65164428	          0.00000000	
          1.91500000	          0.02584396	          0.10027607	         -0.00285865	         -0.00007048	          0.00000000	         -0.00004747	        -34.54514831	        509.12276172	        -28.71813466	          0.46263719	          0.00000000	          0.09286400	          0.00000000	          0.00022061	          0.00000000	          0.00000000	         -0.64133062	          0.00000000	
          1.91600000	          0.02376472	          0.09340694	         -0.00276115	         -0.00006867	          0.00000000	         -0.00004661	        -34.44253794	        509.02973551	        -28.64938499	          0.46335384	          0.00000000	          0.09273980	          0.00000000	          0.00021514	          0.00000000	          0.00000000	         -0.63071953	          0.00000000	
          1.91700000	          0.02177247	          0.08676888	         -0.00266152	         -0.00006676	          0.00000000	         -0.00004564	        -34.33677776	        508.96541436	        -28.58223153	          0.46407024	          0.00000000	          0.09261555	          0.00000000	          0.00020933	          0.00000000	          0.00000000	         -0.61981097	          0.00000000	
          1.91800000	          0.01986734	          0.08036734	         -0.00256030	         -0.00006475	          0.00000000	         -0.00004458	        -34.22758877	        508.92918221	        -28.51686196	          0.46478626	          0.00000000	          0.09249131	          0.00000000	          0.00020322	          0.00000000	          0.00000000	         -0.60860580	          0.00000000	
          1.91900000	          0.01804911	          0.07420639	         -0.00245801	         -0.00006267	          0.00000000	         -0.00004345	        -34.11470940	        508.92042544	        -28.45347471	          0.46550177	          0.00000000	          0.09236713	          0.00000000	          0.00019686	          0.00000000	          0.00000000	         -0.59710577	          0.00000000	
          1.92000000	          0.01631727	          0.06828887	         -0.00235513	         -0.00006053	          0.00000000	         -0.00004224	        -33.99789695	        508.93853470	        -28.39227696	          0.46621664	          0.00000000	          0.09224307	          0.00000000	          0.00019029	          0.00000000	          0.00000000	         -0.58531335	          0.00000000	
          1.92100000	          0.01467102	          0.06261643	         -0.00225209	         -0.00005835	          0.00000000	         -0.00004098	        -33.87692906	        508.98290651	        -28.33348260	          0.46693075	          0.00000000	          0.09211918	          0.00000000	          0.00018357	          0.00000000	          0.00000000	         -0.57323149	          0.00000000	
          1.92200000	          0.01310931	          0.05718967	         -0.00214931	         -0.00005613	          0.00000000	         -0.00003967	        -33.75160513	        509.05294488	        -28.27731030	          0.46764398	          0.00000000	          0.09199551	          0.00000000	          0.00017673	          0.00000000	          0.00000000	         -0.56086341	          0.00000000	
          1.92300000	          0.01163084	          0.05200822	         -0.00204714	         -0.00005388	          0.00000000	         -0.00003833	        -33.62174733	        509.14806341	        -28.22398162	          0.46835620	          0.00000000	          0.09187212	          0.00000000	          0.00016980	          0.00000000	          0.00000000	         -0.54821246	          0.00000000	
          1.92400000	          0.01023412	          0.04707078	         -0.00194593	         -0.00005163	          0.00000000	         -0.00003695	        -33.48720123	        509.26768782	        -28.17371932	          0.46906728	          0.00000000	          0.09174907	          0.00000000	          0.00016281	          0.00000000	          0.00000000	         -0.53528219	          0.00000000	
          1.92500000	          0.00891749	          0.04237528	         -0.00184597	         -0.00004937	          0.00000000	         -0.00003555	        -33.34783602	        509.41125908	        -28.12674585	          0.46977710	          0.00000000	          0.09162640	          0.00000000	          0.00015581	          0.00000000	          0.00000000	         -0.52207656	          0.00000000	
          1.92600000	          0.00767911	          0.03791888	         -0.00174753	         -0.00004711	          0.00000000	         -0.00003413	        -33.20354437	        509.57823658	        -28.08328198	          0.47048552	          0.00000000	          0.09150419	          0.00000000	          0.00014881	          0.00000000	          0.00000000	         -0.50860021	          0.00000000	
          1.92700000	          0.00651700	          0.03369809	         -0.00165086	         -0.00004487	          0.00000000	         -0.00003271	        -33.05424233	        509.76810113	        -28.04354554	          0.47119242	          0.00000000	          0.09138250	          0.00000000	          0.00014184	          0.00000000	          0.00000000	         -0.49485865	          0.00000000	
          1.92800000	          0.00542907	          0.02970884	         -0.00155616	         -0.00004265	          0.00000000	         -0.00003128	        -32.89986920	        509.98035709	        -28.00775012	          0.47189767	          0.00000000	          0.09126139	          0.00000000	          0.00013493	          0.00000000	          0.00000000	         -0.48085845	          0.00000000	
          1.92900000	          0.00441313	          0.02594651	         -0.00146364	         -0.00004046	          0.00000000	         -0.00002986	        -32.74038741	        510.21453381	        -27.97610350	          0.47260114	          0.00000000	          0.09114094	          0.00000000	          0.00012810	          0.00000000	          0.00000000	         -0.46660722	          0.00000000	
          1.93000000	          0.00346689	          0.02240602	         -0.00137346	         -0.00003830	          0.00000000	         -0.00002844	        -32.57578237	        510.47018610	        -27.94880595	          0.47330271	          0.00000000	          0.09102121	          0.00000000	          0.00012137	          0.00000000	          0.00000000	         -0.45211361	          0.00000000	
          1.93100000	          0.00258801	          0.01908189	         -0.00128575	         -0.00003618	          0.00000000	         -0.00002704	        -32.40606210	        510.74689403	        -27.92604843	          0.47400226	          0.00000000	          0.09090227	          0.00000000	          0.00011475	          0.00000000	          0.00000000	         -0.43738719	          0.00000000	
          1.93200000	          0.00177407	          0.01596828	         -0.00120064	         -0.00003411	          0.00000000	         -0.00002566	        -32.23125663	        511.04426215	        -27.90801094	          0.47469966	          0.00000000	          0.09078417	          0.00000000	          0.00010826	          0.00000000	          0.00000000	         -0.42243846	          0.00000000	
